<svg width="27" height="28" viewBox="0 0 27 28" fill="none" xmlns="http://www.w3.org/2000/svg">
<path d="M13.5 24.5001L11.8687 22.9835C9.975 21.214 8.40937 19.6876 7.17188 18.4043C5.93437 17.121 4.95 15.9689 4.21875 14.948C3.4875 13.9272 2.97656 12.989 2.68594 12.1335C2.39531 11.2779 2.25 10.4029 2.25 9.50846C2.25 7.68069 2.84062 6.1543 4.02187 4.9293C5.20312 3.7043 6.675 3.0918 8.4375 3.0918C9.4125 3.0918 10.3406 3.30569 11.2219 3.73346C12.1031 4.16124 12.8625 4.76402 13.5 5.5418C14.1375 4.76402 14.8969 4.16124 15.7781 3.73346C16.6594 3.30569 17.5875 3.0918 18.5625 3.0918C20.325 3.0918 21.7969 3.7043 22.9781 4.9293C24.1594 6.1543 24.75 7.68069 24.75 9.50846C24.75 10.4029 24.6047 11.2779 24.3141 12.1335C24.0234 12.989 23.5125 13.9272 22.7812 14.948C22.05 15.9689 21.0656 17.121 19.8281 18.4043C18.5906 19.6876 17.025 21.214 15.1312 22.9835L13.5 24.5001Z" fill="#EA3323"/>
</svg>
