<svg width="113" height="50" viewBox="0 0 113 50" fill="none" xmlns="http://www.w3.org/2000/svg">
<path d="M100.872 12.8297C100.647 12.0758 100.032 11.6095 99.1842 11.5508C99.0132 11.5383 98.0515 11.5768 97.4026 11.9018L97.3997 11.895L70.5096 22.3489C69.6447 22.6412 68.6909 23.3325 68.6713 24.3556C68.6694 24.4364 68.6743 24.52 68.685 24.6056C68.8541 25.9518 70.3014 26.4979 70.451 26.5489L76.6831 28.8585C77.162 30.3729 78.7432 35.372 79.0833 36.4412C79.312 37.1566 79.6893 38.0845 80.3802 38.3383C80.5796 38.4191 80.7916 38.4614 81.0125 38.4614C81.6126 38.4614 82.0035 38.1614 82.1491 38.0316L85.9635 34.2912L92.0568 38.9999C92.1204 39.0499 92.1917 39.0922 92.267 39.1239C92.7722 39.3431 93.2208 39.422 93.6029 39.422C94.0026 39.422 94.331 39.3364 94.5782 39.2364C95.621 38.8152 96.0383 37.845 96.0833 37.7354C96.1048 37.6806 96.1224 37.6239 96.1341 37.5662L100.859 13.947C100.968 13.1431 100.909 12.9537 100.872 12.8297ZM78.6348 28.5585L88.2826 22.8402L81.6614 29.622C81.5442 29.7412 81.4777 29.8902 81.4376 30.047C81.4347 30.0585 80.4545 34.3066 80.4545 34.3066L78.6348 28.5585ZM98.9311 13.6422L94.2411 37.0749C94.1854 37.1691 94.0456 37.3739 93.8375 37.4575C93.6625 37.5277 93.4348 37.5104 93.1592 37.4066L83.8173 30.1883L94.8069 18.9345C95.147 18.5874 95.1724 18.045 94.8665 17.6691C94.5616 17.2931 94.0192 17.197 93.599 17.446L77.375 27.0614L71.1312 24.7479C70.9396 24.6758 70.7422 24.5354 70.6611 24.4374C70.7676 24.345 70.9826 24.2249 71.1859 24.1527L98.118 13.6825C98.1346 13.6768 98.1502 13.6691 98.1668 13.6624C98.4121 13.5566 98.7434 13.4777 98.9516 13.4652C98.9418 13.5614 98.9311 13.6422 98.9311 13.6422Z" fill="white"/>
<path d="M87.2396 50C73.2282 50 61.8301 38.7846 61.8301 25C61.8301 11.2154 73.2282 0 87.2396 0C101.251 0 112.649 11.2154 112.649 25C112.649 38.7846 101.251 50 87.2396 50ZM87.2396 1.92308C74.3071 1.92308 63.7847 12.276 63.7847 25C63.7847 37.724 74.3071 48.0769 87.2396 48.0769C100.172 48.0769 110.694 37.724 110.694 25C110.694 12.276 100.172 1.92308 87.2396 1.92308Z" fill="white"/>
<path d="M25.4095 50C11.3991 50 0 38.7856 0 25C0 11.2144 11.3991 0 25.4095 0C39.4199 0 50.819 11.2144 50.819 25C50.819 38.7856 39.4199 50 25.4095 50ZM25.4095 1.92308C12.477 1.92308 1.95458 12.276 1.95458 25C1.95458 37.724 12.477 48.0769 25.4095 48.0769C38.3419 48.0769 48.8644 37.724 48.8644 25C48.8644 12.276 38.3419 1.92308 25.4095 1.92308Z" fill="url(#paint0_linear_481_215)"/>
<path d="M36.1648 26.1281C36.1648 26.1281 40.4499 19.7587 40.8758 17.7435C41.0192 17.0237 40.7076 16.3848 39.9679 16.3848C39.9679 16.3848 37.4987 16.3848 36.25 16.3848C35.3982 16.3848 35.0865 16.9952 34.831 17.5422C34.831 17.5422 32.8211 22.0058 30.3755 24.7442C29.5906 25.6292 29.39 25.9552 28.9565 25.9552C28.6072 25.9552 28.6438 25.7189 28.6438 24.9203V17.923C28.6438 16.9427 28.1349 16.3848 27.3402 16.3848H21.3805C20.9266 16.3848 20.7142 16.7874 20.7142 17.1528C20.7142 18.075 22.1763 18.4174 22.1763 20.9162V26.0701C22.1763 27.1072 22.048 27.5098 21.566 27.5098C20.2893 27.5098 17.2162 22.9117 15.5136 17.8431C15.1707 16.8082 14.7664 16.3848 13.8024 16.3848H10.0845C9.54535 16.3848 9.14746 16.8946 9.14746 17.4416C9.14746 18.4492 10.3109 23.1819 14.8807 29.4309C17.9462 33.6352 22.117 35.9436 25.7497 35.9436C27.9634 35.9436 28.6438 35.6034 28.6438 34.6527V31.4275C28.6438 30.6212 28.8142 30.2755 29.2682 30.2755C29.7793 30.2755 30.6095 30.4921 32.7165 32.6003C35.2159 35.0192 35.3151 36.0771 36.677 36.0771H40.8489C41.2748 36.0771 41.6716 35.8254 41.6716 35.1056C41.6716 34.1549 40.451 32.4318 38.578 30.4155C37.8114 29.3795 36.5627 28.2439 36.1659 27.7253C35.5987 27.1204 35.768 26.7615 36.1648 26.1281Z" fill="white"/>
<defs>
<linearGradient id="paint0_linear_481_215" x1="25.4095" y1="-0.480769" x2="25.4095" y2="51.2029" gradientUnits="userSpaceOnUse">
<stop stop-color="white"/>
<stop offset="1" stop-color="white"/>
</linearGradient>
</defs>
</svg>
