<svg width="52" height="50" viewBox="0 0 52 50" fill="none" xmlns="http://www.w3.org/2000/svg">
<path d="M39.872 12.8297C39.6472 12.0758 39.0325 11.6095 38.1842 11.5508C38.0132 11.5383 37.0515 11.5768 36.4026 11.9018L36.3997 11.895L9.5096 22.3489C8.6447 22.6412 7.69087 23.3325 7.67132 24.3556C7.66937 24.4364 7.67425 24.52 7.685 24.6056C7.85407 25.9518 9.30144 26.4979 9.45096 26.5489L15.6831 28.8585C16.162 30.3729 17.7432 35.372 18.0833 36.4412C18.312 37.1566 18.6893 38.0845 19.3802 38.3383C19.5796 38.4191 19.7916 38.4614 20.0125 38.4614C20.6126 38.4614 21.0035 38.1614 21.1491 38.0316L24.9635 34.2912L31.0568 38.9999C31.1204 39.0499 31.1917 39.0922 31.267 39.1239C31.7722 39.3431 32.2208 39.422 32.6029 39.422C33.0026 39.422 33.331 39.3364 33.5782 39.2364C34.621 38.8152 35.0383 37.845 35.0833 37.7354C35.1048 37.6806 35.1224 37.6239 35.1341 37.5662L39.8593 13.947C39.9678 13.1431 39.9091 12.9537 39.872 12.8297ZM17.6348 28.5585L27.2826 22.8402L20.6614 29.622C20.5442 29.7412 20.4777 29.8902 20.4376 30.047C20.4347 30.0585 19.4545 34.3066 19.4545 34.3066L17.6348 28.5585ZM37.9311 13.6422L33.2411 37.0749C33.1854 37.1691 33.0456 37.3739 32.8375 37.4575C32.6625 37.5277 32.4348 37.5104 32.1592 37.4066L22.8173 30.1883L33.8069 18.9345C34.147 18.5874 34.1724 18.045 33.8665 17.6691C33.5616 17.2931 33.0192 17.197 32.599 17.446L16.375 27.0614L10.1312 24.7479C9.93961 24.6758 9.74219 24.5354 9.66108 24.4374C9.7676 24.345 9.98261 24.2249 10.1859 24.1527L37.118 13.6825C37.1346 13.6768 37.1502 13.6691 37.1668 13.6624C37.4121 13.5566 37.7434 13.4777 37.9516 13.4652C37.9418 13.5614 37.9311 13.6422 37.9311 13.6422Z" fill="white"/>
<path d="M26.2396 50C12.2282 50 0.830078 38.7846 0.830078 25C0.830078 11.2154 12.2282 0 26.2396 0C40.2509 0 51.649 11.2154 51.649 25C51.649 38.7846 40.2509 50 26.2396 50ZM26.2396 1.92308C13.3071 1.92308 2.78465 12.276 2.78465 25C2.78465 37.724 13.3071 48.0769 26.2396 48.0769C39.172 48.0769 49.6945 37.724 49.6945 25C49.6945 12.276 39.172 1.92308 26.2396 1.92308Z" fill="white"/>
</svg>
