<svg width="62" height="60" viewBox="0 0 62 60" fill="none" xmlns="http://www.w3.org/2000/svg">
<path d="M47.0466 15.3954C46.7769 14.4908 46.0392 13.9312 45.0213 13.8608C44.816 13.8458 43.6621 13.8919 42.8834 14.2819L42.8798 14.2739L10.6118 26.8185C9.57396 27.1692 8.42936 27.9989 8.40591 29.2265C8.40356 29.3235 8.40943 29.4239 8.42233 29.5265C8.62521 31.1419 10.362 31.7973 10.5415 31.8585L18.0201 34.63C18.5947 36.4473 20.4922 42.4462 20.9003 43.7292C21.1747 44.5877 21.6274 45.7012 22.4565 46.0058C22.6958 46.1027 22.9503 46.1535 23.2153 46.1535C23.9354 46.1535 24.4045 45.7935 24.5792 45.6377L29.1564 41.1492L36.4685 46.7996C36.5447 46.8596 36.6303 46.9104 36.7206 46.9485C37.3269 47.2115 37.8652 47.3062 38.3237 47.3062C38.8034 47.3062 39.1974 47.2035 39.4941 47.0835C40.7455 46.5781 41.2462 45.4139 41.3002 45.2823C41.326 45.2165 41.3471 45.1485 41.3611 45.0792L47.0314 16.7362C47.1615 15.7715 47.0912 15.5442 47.0466 15.3954ZM20.362 34.27L31.9393 27.4081L23.994 35.5462C23.8533 35.6892 23.7735 35.8681 23.7254 36.0562C23.7219 36.07 22.5457 41.1677 22.5457 41.1677L20.362 34.27ZM44.7175 16.3704L39.0895 44.4896C39.0227 44.6027 38.855 44.8485 38.6052 44.9489C38.3953 45.0331 38.122 45.0123 37.7913 44.8877L26.5811 36.2258L39.7686 22.7212C40.1767 22.3046 40.2072 21.6539 39.8401 21.2027C39.4742 20.7515 38.8233 20.6362 38.3191 20.935L18.8504 32.4735L11.3577 29.6973C11.1278 29.6108 10.891 29.4423 10.7936 29.3246C10.9214 29.2139 11.1794 29.0696 11.4234 28.9831L43.7418 16.4189C43.7618 16.4119 43.7805 16.4027 43.8005 16.3946C44.0948 16.2677 44.4924 16.1731 44.7422 16.1581C44.7304 16.2735 44.7175 16.3704 44.7175 16.3704Z" fill="black"/>
<path d="M30.6877 60C13.8741 60 0.196365 46.5415 0.196365 30C0.196365 13.4585 13.8741 0 30.6877 0C47.5013 0 61.179 13.4585 61.179 30C61.179 46.5415 47.5013 60 30.6877 60ZM30.6877 2.30769C15.1688 2.30769 2.54185 14.7312 2.54185 30C2.54185 45.2688 15.1688 57.6923 30.6877 57.6923C46.2066 57.6923 58.8335 45.2688 58.8335 30C58.8335 14.7312 46.2066 2.30769 30.6877 2.30769Z" fill="black"/>
</svg>
