<svg width="51" height="50" viewBox="0 0 51 50" fill="none" xmlns="http://www.w3.org/2000/svg">
<path d="M25.4095 50C11.3991 50 0 38.7856 0 25C0 11.2144 11.3991 0 25.4095 0C39.4199 0 50.819 11.2144 50.819 25C50.819 38.7856 39.4199 50 25.4095 50ZM25.4095 1.92308C12.477 1.92308 1.95458 12.276 1.95458 25C1.95458 37.724 12.477 48.0769 25.4095 48.0769C38.3419 48.0769 48.8644 37.724 48.8644 25C48.8644 12.276 38.3419 1.92308 25.4095 1.92308Z" fill="url(#paint0_linear_481_221)"/>
<path d="M36.1648 26.1281C36.1648 26.1281 40.4499 19.7587 40.8758 17.7435C41.0192 17.0237 40.7076 16.3848 39.9679 16.3848C39.9679 16.3848 37.4987 16.3848 36.25 16.3848C35.3982 16.3848 35.0865 16.9952 34.831 17.5422C34.831 17.5422 32.8211 22.0058 30.3755 24.7442C29.5906 25.6292 29.39 25.9552 28.9565 25.9552C28.6072 25.9552 28.6438 25.7189 28.6438 24.9203V17.923C28.6438 16.9427 28.1349 16.3848 27.3402 16.3848H21.3805C20.9266 16.3848 20.7142 16.7874 20.7142 17.1528C20.7142 18.075 22.1763 18.4174 22.1763 20.9162V26.0701C22.1763 27.1072 22.048 27.5098 21.566 27.5098C20.2893 27.5098 17.2162 22.9117 15.5136 17.8431C15.1707 16.8082 14.7664 16.3848 13.8024 16.3848H10.0845C9.54535 16.3848 9.14746 16.8946 9.14746 17.4416C9.14746 18.4492 10.3109 23.1819 14.8807 29.4309C17.9462 33.6352 22.117 35.9436 25.7497 35.9436C27.9634 35.9436 28.6438 35.6034 28.6438 34.6527V31.4275C28.6438 30.6212 28.8142 30.2755 29.2682 30.2755C29.7793 30.2755 30.6095 30.4921 32.7165 32.6003C35.2159 35.0192 35.3151 36.0771 36.677 36.0771H40.8489C41.2748 36.0771 41.6716 35.8254 41.6716 35.1056C41.6716 34.1549 40.451 32.4318 38.578 30.4155C37.8114 29.3795 36.5627 28.2439 36.1659 27.7253C35.5987 27.1204 35.768 26.7615 36.1648 26.1281Z" fill="white"/>
<defs>
<linearGradient id="paint0_linear_481_221" x1="25.4095" y1="-0.480769" x2="25.4095" y2="51.2029" gradientUnits="userSpaceOnUse">
<stop stop-color="white"/>
<stop offset="1" stop-color="white"/>
</linearGradient>
</defs>
</svg>
