<svg width="61" height="60" viewBox="0 0 61 60" fill="none" xmlns="http://www.w3.org/2000/svg">
<path d="M30.4913 60C13.6789 60 0 46.5427 0 30C0 13.4573 13.6789 0 30.4913 0C47.3038 0 60.9826 13.4573 60.9826 30C60.9826 46.5427 47.3038 60 30.4913 60ZM30.4913 2.30769C14.9724 2.30769 2.34549 14.7312 2.34549 30C2.34549 45.2688 14.9724 57.6923 30.4913 57.6923C46.0102 57.6923 58.6371 45.2688 58.6371 30C58.6371 14.7312 46.0102 2.30769 30.4913 2.30769Z" fill="black"/>
<path d="M43.3975 31.3541C43.3975 31.3541 48.5396 23.7108 49.0507 21.2926C49.2228 20.4288 48.8489 19.6621 47.9612 19.6621C47.9612 19.6621 44.9981 19.6621 43.4998 19.6621C42.4776 19.6621 42.1036 20.3947 41.7969 21.0511C41.7969 21.0511 39.3851 26.4074 36.4504 29.6934C35.5084 30.7554 35.2678 31.1467 34.7476 31.1467C34.3284 31.1467 34.3724 30.8631 34.3724 29.9047V21.5079C34.3724 20.3316 33.7616 19.6621 32.808 19.6621H25.6564C25.1117 19.6621 24.8568 20.1452 24.8568 20.5837C24.8568 21.6904 26.6114 22.1013 26.6114 25.0998V31.2845C26.6114 32.5291 26.4574 33.0122 25.879 33.0122C24.347 33.0122 20.6593 27.4944 18.6162 21.4121C18.2047 20.1702 17.7195 19.6621 16.5627 19.6621H12.1012C11.4542 19.6621 10.9768 20.2739 10.9768 20.9303C10.9768 22.1394 12.3729 27.8187 17.8566 35.3175C21.5353 40.3627 26.5402 43.1327 30.8995 43.1327C33.5559 43.1327 34.3724 42.7244 34.3724 41.5836V37.7134C34.3724 36.7458 34.5768 36.331 35.1216 36.331C35.7349 36.331 36.7312 36.5909 39.2595 39.1207C42.2589 42.0234 42.3779 43.2929 44.0122 43.2929H49.0184C49.5295 43.2929 50.0057 42.9909 50.0057 42.1271C50.0057 40.9863 48.5409 38.9186 46.2934 36.499C45.3734 35.2558 43.875 33.8931 43.3988 33.2708C42.7182 32.5448 42.9214 32.1142 43.3975 31.3541Z" fill="black"/>
</svg>
